<?xml version="1.0" encoding="UTF-8"?>
<svg width="1684px" height="1190px" viewBox="0 0 1684 1190" version="1.1" xmlns="http://www.w3.org/2000/svg" xmlns:xlink="http://www.w3.org/1999/xlink">
    <!-- Generator: Sketch 52.4 (67378) - http://www.bohemiancoding.com/sketch -->
    <title>IP logo Copy</title>
    <desc>Created with Sketch.</desc>
    <g id="IP-logo-Copy" stroke="none" stroke-width="1" fill="none" fill-rule="evenodd">
        <g id="Group-2" transform="translate(687.000000, 408.945312)">
            <g id="Group-31" transform="translate(0.066406, 0.491182)">
                <polygon id="Fill-7" fill="#192642" points="0.761908427 154.94836 7.91560025 154.94836 7.91560025 11.1608264 0.761908427 11.1608264"></polygon>
                <path d="M99.0842274,50.1890503 C102.48857,50.1890503 105.726644,50.73832 108.794294,51.8326825 C111.859865,52.9291334 114.518078,54.5372615 116.764778,56.6591551 C119.013557,58.7831372 120.819645,61.4187965 122.183045,64.5682213 C123.544367,67.7218231 124.228145,71.4163407 124.228145,75.6580395 L124.228145,154.947107 L117.072375,154.947107 L117.072375,75.6580395 C117.072375,69.3633668 115.299539,64.741565 111.758025,61.7947225 C108.212355,58.852057 103.989141,57.3775916 99.0842274,57.3775916 C95.6757281,57.3775916 92.1342142,57.7221904 88.455529,58.4051227 C84.7747654,59.0943205 80.9589089,60.0487549 77.0079594,61.2809569 C79.4604162,65.2532421 80.6866446,70.0462991 80.6866446,75.6580395 L80.6866446,154.947107 L73.5329528,154.947107 L73.5329528,75.6580395 C73.5329528,69.3633668 71.7601175,64.741565 68.2165252,61.7947225 C64.6729329,58.852057 60.4497192,57.3775916 55.5448056,57.3775916 C52.4085705,57.3775916 49.3762532,57.6532707 46.4478535,58.2004519 C43.5152971,58.7497216 40.4164724,59.5704935 37.1472228,60.6648559 L37.1472228,154.947107 L29.9935309,154.947107 L29.9935309,52.2420241 L37.1472228,52.2420241 L37.1472228,55.5292885 C40.6887367,54.0234959 44.061904,52.7557897 47.2646463,51.730347 C50.4653103,50.7028159 53.2253633,50.1890503 55.5448056,50.1890503 C63.1744403,50.1890503 69.3741679,52.586623 74.146067,57.3775916 C78.506452,55.4624572 82.9354228,53.7833209 87.4329792,52.346448 C91.9305356,50.9074867 95.8128994,50.1890503 99.0842274,50.1890503" id="Fill-9" fill="#192642"></path>
                <path d="M176.756652,57.3784269 C170.076825,57.3784269 162.98964,58.6127174 155.497177,61.0771215 L155.497177,146.32044 C163.266061,148.649093 170.349089,149.812375 176.756652,149.812375 C182.752701,149.812375 187.794786,148.101911 191.882907,144.676807 C195.971028,141.25588 198.016127,135.844634 198.016127,128.449333 L198.016127,78.7414684 C198.016127,71.3461678 195.971028,65.9390983 191.882907,62.5139944 C187.794786,59.0930674 182.752701,57.3784269 176.756652,57.3784269 M176.756652,157.000916 C173.210982,157.000916 169.669468,156.520566 166.127954,155.564043 C162.582283,154.60752 159.040769,153.508981 155.497177,152.27469 L155.497177,204.655807 L148.547164,204.655807 L148.547164,52.2428595 L155.497177,52.2428595 L155.497177,55.1186937 C159.040769,53.7528291 162.582283,52.5874584 166.127954,51.6267585 C169.669468,50.6702356 173.210982,50.1898857 176.756652,50.1898857 C180.705523,50.1898857 184.421619,50.7370669 187.896625,51.8335178 C191.371632,52.9299688 194.368617,54.6759364 196.88966,57.0714207 C199.410702,59.4689934 201.42047,62.4471631 202.921041,66.0059296 C204.419534,69.568873 205.169819,73.8105719 205.169819,78.7414684 L205.169819,128.449333 C205.169819,133.38023 204.419534,137.626106 202.921041,141.184872 C201.42047,144.747816 199.410702,147.728074 196.88966,150.119381 C194.368617,152.516954 191.371632,154.26501 187.896625,155.359372 C184.421619,156.451646 180.705523,157.000916 176.756652,157.000916" id="Fill-10" fill="#192642"></path>
                <polygon id="Fill-11" fill="#192642" points="227.859409 154.94836 235.013101 154.94836 235.013101 0.889691629 227.859409 0.889691629"></polygon>
                <path d="M306.353199,78.7404242 C306.353199,71.3472121 304.310178,65.938054 300.222057,62.5129501 C296.131858,59.0941116 291.089773,57.3773827 285.093724,57.3773827 C279.095597,57.3773827 274.05559,59.0941116 269.967469,62.5129501 C265.879348,65.938054 263.836327,71.3472121 263.836327,78.7404242 L263.836327,100.103466 L306.353199,100.103466 L306.353199,78.7404242 Z M285.093724,149.811331 C287.818445,149.811331 291.359959,149.335158 295.724501,148.374458 C300.082807,147.417935 304.64895,146.047893 309.420849,144.266422 L309.420849,151.868481 C304.923292,153.510025 300.527575,154.775643 296.235776,155.665334 C291.941898,156.555026 288.227881,157.00196 285.093724,157.00196 C281.140696,157.00196 277.462011,156.452691 274.05559,155.360417 C270.647091,154.263966 267.685437,152.51591 265.164395,150.120425 C262.641274,147.72703 260.631506,144.746771 259.133014,141.183828 C257.634521,137.625061 256.884236,133.379186 256.884236,128.450378 L256.884236,78.7404242 C256.884236,73.8116161 257.634521,69.5678288 259.133014,66.0048853 C260.631506,62.4461188 262.641274,59.4679492 265.164395,57.0703764 C267.685437,54.6769806 270.647091,52.931013 274.05559,51.8324736 C277.462011,50.7381111 281.140696,50.1888414 285.093724,50.1888414 C289.044673,50.1888414 292.760769,50.7381111 296.235776,51.8324736 C299.710782,52.931013 302.705689,54.6769806 305.22881,57.0703764 C307.749853,59.4679492 309.75962,62.4461188 311.258113,66.0048853 C312.756605,69.5678288 313.506891,73.8116161 313.506891,78.7404242 L313.506891,107.087336 L263.836327,107.087336 L263.836327,128.450378 C263.836327,135.845678 265.879348,141.256925 269.967469,144.675763 C274.05559,148.102956 279.095597,149.811331 285.093724,149.811331 Z" id="Fill-12" fill="#192642"></path>
                <path d="M405.901123,50.1890503 C409.307544,50.1890503 412.545618,50.73832 415.611189,51.8326825 C418.674682,52.9291334 421.334974,54.5372615 423.583752,56.6591551 C425.83253,58.7831372 427.634463,61.4187965 428.997862,64.5682213 C430.363341,67.7218231 431.04504,71.4163407 431.04504,75.6580395 L431.04504,154.947107 L423.887192,154.947107 L423.887192,75.6580395 C423.887192,69.3633668 422.118513,64.741565 418.574921,61.7947225 C415.031329,58.852057 410.808115,57.3775916 405.901123,57.3775916 C402.492624,57.3775916 398.95111,57.7221904 395.272425,58.4051227 C391.591661,59.0943205 387.775804,60.0487549 383.824855,61.2809569 C386.27939,65.2532421 387.50354,70.0462991 387.50354,75.6580395 L387.50354,154.947107 L380.349848,154.947107 L380.349848,75.6580395 C380.349848,69.3633668 378.579091,64.741565 375.033421,61.7947225 C371.489829,58.852057 367.266615,57.3775916 362.361701,57.3775916 C359.225466,57.3775916 356.193149,57.6532707 353.264749,58.2004519 C350.334271,58.7497216 347.233368,59.5704935 343.964118,60.6648559 L343.964118,154.947107 L336.810427,154.947107 L336.810427,52.2420241 L343.964118,52.2420241 L343.964118,55.5292885 C347.505632,54.0234959 350.8788,52.7557897 354.081542,51.730347 C357.282206,50.7028159 360.044337,50.1890503 362.361701,50.1890503 C369.993414,50.1890503 376.191064,52.586623 380.962963,57.3775916 C385.323348,55.4624572 389.752318,53.7833209 394.251953,52.346448 C398.747431,50.9074867 402.631873,50.1890503 405.901123,50.1890503" id="Fill-13" fill="#192642"></path>
                <path d="M483.370493,50.1890503 C487.321442,50.1890503 491.035459,50.73832 494.510466,51.8326825 C497.985473,52.9291334 500.982458,54.675101 503.505579,57.0705853 C506.024543,59.468158 508.03431,62.4463277 509.534881,66.0050942 C511.033374,69.5680377 511.78366,73.811825 511.78366,78.740633 L511.78366,154.947107 L504.629968,154.947107 L504.629968,78.740633 C504.629968,71.3474209 502.584868,65.9382629 498.496747,62.513159 C494.410705,59.0943205 489.366542,57.3775916 483.370493,57.3775916 C476.692744,57.3775916 469.605559,58.6118821 462.111017,61.0762861 L462.111017,154.947107 L455.163083,154.947107 L455.163083,52.2420241 L462.111017,52.2420241 L462.111017,55.7360478 C465.924796,54.2302552 469.740652,52.9291334 473.558587,51.8326825 C477.372365,50.73832 480.643693,50.1890503 483.370493,50.1890503" id="Fill-14" fill="#192642"></path>
                <path d="M542.445189,52.2428595 L542.445189,32.3187794 L549.598881,32.3187794 L549.598881,52.2428595 L575.355913,52.2428595 L575.355913,59.4314008 L549.598881,59.4314008 L549.598881,128.449333 C549.598881,135.844634 551.812327,141.25588 556.243376,144.676807 C560.670269,148.101911 566.086457,149.812375 572.49402,149.812375 L572.49402,157.000916 C568.268728,157.000916 564.348954,156.451646 560.740933,155.359372 C557.126676,154.26501 553.959266,152.516954 551.234545,150.119381 C548.507746,147.728074 546.360807,144.747816 544.795807,141.184872 C543.22665,137.626106 542.445189,133.38023 542.445189,128.449333 L542.445189,59.4314008 L528.748841,59.4314008 L528.748841,52.2428595 L542.445189,52.2428595 Z" id="Fill-15" fill="#192642"></path>
                <path d="M28.7652242,266.888066 C31.0805097,266.888066 33.7387235,266.649979 36.7377872,266.167541 C39.7326942,265.691368 42.5634113,264.594917 45.2195467,262.882365 C47.8777605,261.171902 50.1265387,258.707498 51.9658813,255.487064 C53.8052239,252.270808 54.7259344,247.855766 54.7259344,242.23776 L54.7259344,214.097607 C54.7259344,209.855909 54.0421562,206.157214 52.6808348,203.007789 C51.3174351,199.858364 49.4780925,197.325041 47.162807,195.407818 C44.8433648,193.490595 42.1186437,192.051634 38.9865654,191.093022 C35.8503303,190.136499 32.4459878,189.656149 28.7652242,189.656149 L7.91518458,189.656149 L7.91518458,266.888066 L28.7652242,266.888066 Z M0.761492756,326.250965 L0.761492756,182.46552 L28.7652242,182.46552 C33.3978735,182.46552 37.725005,183.117125 41.7466185,184.416158 C45.7640753,185.719368 49.2744139,187.672095 52.2734776,190.27225 C55.2683846,192.874494 57.6190021,196.15967 59.3253301,200.131955 C61.0275014,204.10424 61.8796262,208.759458 61.8796262,214.097607 L61.8796262,242.23776 C61.8796262,249.22163 60.7573155,254.804132 58.5085373,258.979 C56.2597591,263.158044 53.429042,266.3743 50.0246994,268.634033 C46.6162001,270.893767 43.0040222,272.366144 39.190244,273.049076 C35.3743875,273.736185 31.8993809,274.076607 28.7652242,274.076607 L7.91518458,274.076607 L7.91518458,326.250965 L0.761492756,326.250965 Z" id="Fill-16" fill="#166F98"></path>
                <path d="M108.895509,228.681658 C102.080589,228.681658 94.9248191,229.91386 87.4323557,232.380353 L87.4323557,326.251173 L80.4823425,326.251173 L80.4823425,223.546091 L87.4323557,223.546091 L87.4323557,227.038026 C91.2461338,225.532233 95.0619904,224.2332 98.8799253,223.136749 C102.693703,222.040298 106.033617,221.493117 108.895509,221.493117 L108.895509,228.681658 Z" id="Fill-17" fill="#166F98"></path>
                <path d="M173.48283,250.043655 C173.48283,242.650443 171.439809,237.241285 167.351688,233.816181 C163.263567,230.395254 158.219404,228.680614 152.223355,228.680614 C146.227306,228.680614 141.187299,230.395254 137.0971,233.816181 C133.008979,237.241285 130.965958,242.650443 130.965958,250.043655 L130.965958,299.753609 C130.965958,307.148909 133.008979,312.560156 137.0971,315.978994 C141.187299,319.404098 146.227306,321.114562 152.223355,321.114562 C158.219404,321.114562 163.263567,319.404098 167.351688,315.978994 C171.439809,312.560156 173.48283,307.148909 173.48283,299.753609 L173.48283,250.043655 Z M180.636522,299.753609 C180.636522,304.682417 179.888315,308.928293 178.389822,312.487059 C176.889251,316.050003 174.879483,319.028172 172.360519,321.423657 C169.83532,323.821229 166.840413,325.567197 163.365407,326.661559 C159.8904,327.755922 156.176383,328.305192 152.223355,328.305192 C148.270327,328.305192 144.591642,327.755922 141.187299,326.661559 C137.7788,325.567197 134.815068,323.821229 132.296104,321.423657 C129.772983,319.028172 127.763216,316.050003 126.264723,312.487059 C124.764152,308.928293 124.015945,304.682417 124.015945,299.753609 L124.015945,250.043655 C124.015945,245.114847 124.764152,240.87106 126.264723,237.308117 C127.763216,233.74935 129.772983,230.769092 132.296104,228.373608 C134.815068,225.980212 137.7788,224.234244 141.187299,223.135705 C144.591642,222.041342 148.270327,221.492073 152.223355,221.492073 C156.176383,221.492073 159.8904,222.041342 163.365407,223.135705 C166.840413,224.234244 169.83532,225.980212 172.360519,228.373608 C174.879483,230.769092 176.889251,233.74935 178.389822,237.308117 C179.888315,240.87106 180.636522,245.114847 180.636522,250.043655 L180.636522,299.753609 Z" id="Fill-18" fill="#166F98"></path>
                <path d="M203.124927,206.909693 L210.278619,206.909693 L210.278619,182.464058 L203.124927,182.464058 L203.124927,206.909693 Z M203.122849,223.546508 L210.278619,223.546508 L210.278619,349.462936 C210.278619,354.391744 209.493002,358.633443 207.928002,362.196386 C206.358845,365.757241 204.213984,368.733322 201.487185,371.132983 C198.762464,373.526379 195.590897,375.272347 191.982876,376.370886 C188.374855,377.465249 184.45508,378.014518 180.229788,378.014518 L180.229788,370.823889 C186.637351,370.823889 192.05354,369.111337 196.480432,365.688321 C200.907325,362.265306 203.122849,356.856148 203.122849,349.462936 L203.122849,223.546508 Z" id="Fill-19" fill="#166F98"></path>
                <path d="M281.820941,250.043655 C281.820941,242.650443 279.77792,237.241285 275.689799,233.816181 C271.601678,230.395254 266.557515,228.680614 260.561466,228.680614 C254.565417,228.680614 249.52541,230.395254 245.435211,233.816181 C241.34709,237.241285 239.304069,242.650443 239.304069,250.043655 L239.304069,271.406697 L281.820941,271.406697 L281.820941,250.043655 Z M260.561466,321.114562 C263.288265,321.114562 266.829779,320.638389 271.192243,319.677689 C275.550549,318.721166 280.116691,317.351124 284.88859,315.569653 L284.88859,323.169624 C280.393112,324.813256 275.995317,326.080963 271.703518,326.968566 C267.40964,327.858257 263.695623,328.305192 260.561466,328.305192 C256.608438,328.305192 252.929753,327.755922 249.52541,326.661559 C246.116911,325.567197 243.153179,323.821229 240.634215,321.423657 C238.111094,319.028172 236.101327,316.050003 234.602834,312.487059 C233.102263,308.928293 232.354056,304.682417 232.354056,299.753609 L232.354056,250.043655 C232.354056,245.114847 233.102263,240.87106 234.602834,237.308117 C236.101327,233.74935 238.111094,230.769092 240.634215,228.373608 C243.153179,225.980212 246.116911,224.234244 249.52541,223.135705 C252.929753,222.041342 256.608438,221.492073 260.561466,221.492073 C264.514494,221.492073 268.228511,222.041342 271.703518,223.135705 C275.178524,224.234244 278.173431,225.980212 280.69863,228.373608 C283.217595,230.769092 285.227362,233.74935 286.727933,237.308117 C288.226426,240.87106 288.974633,245.114847 288.974633,250.043655 L288.974633,278.390567 L239.304069,278.390567 L239.304069,299.753609 C239.304069,307.148909 241.34709,312.560156 245.435211,315.978994 C249.52541,319.404098 254.565417,321.114562 260.561466,321.114562 Z" id="Fill-20" fill="#166F98"></path>
                <path d="M340.28481,228.681658 C334.284604,228.681658 329.244597,230.39421 325.158555,233.817226 C321.070434,237.242329 319.025334,242.649399 319.025334,250.0447 L319.025334,299.752565 C319.025334,307.147865 321.070434,312.559112 325.158555,315.980039 C329.244597,319.403054 334.284604,321.115606 340.28481,321.115606 C343.009531,321.115606 346.551045,320.637345 350.913508,319.676645 C355.273893,318.720122 359.837957,317.35008 364.609856,315.570697 L364.609856,323.16858 C360.112299,324.812212 355.718661,326.082007 351.424783,326.96961 C347.132984,327.857213 343.418966,328.304147 340.28481,328.304147 C336.331782,328.304147 332.619843,327.754878 329.144836,326.660515 C325.66983,325.568241 322.668688,323.822274 320.149724,321.422612 C317.626603,319.029217 315.616835,316.051047 314.118342,312.488103 C312.617771,308.929337 311.871643,304.683461 311.871643,299.752565 L311.871643,250.0447 C311.871643,245.113803 312.617771,240.872104 314.118342,237.309161 C315.616835,233.750394 317.626603,230.770136 320.149724,228.374652 C322.668688,225.979168 325.66983,224.2332 329.144836,223.136749 C332.619843,222.040298 336.331782,221.493117 340.28481,221.493117 C343.418966,221.493117 347.132984,221.937963 351.424783,222.827654 C355.718661,223.719434 360.112299,224.982964 364.609856,226.628684 L364.609856,234.226567 C359.837957,232.449272 355.273893,231.079231 350.913508,230.118531 C346.551045,229.162008 343.009531,228.681658 340.28481,228.681658" id="Fill-21" fill="#166F98"></path>
                <path d="M395.269931,223.546091 L395.269931,203.622011 L402.423622,203.622011 L402.423622,223.546091 L428.180654,223.546091 L428.180654,230.734632 L402.423622,230.734632 L402.423622,299.752565 C402.423622,307.147865 404.639147,312.559112 409.068118,315.980039 C413.49501,319.403054 418.911199,321.115606 425.318762,321.115606 L425.318762,328.304147 C421.093469,328.304147 417.173695,327.754878 413.565674,326.660515 C409.951418,325.568241 406.784007,323.822274 404.059286,321.422612 C401.332487,319.029217 399.185548,316.051047 397.620548,312.488103 C396.05347,308.929337 395.269931,304.683461 395.269931,299.752565 L395.269931,230.734632 L381.573583,230.734632 L381.573583,223.546091 L395.269931,223.546091 Z" id="Fill-22" fill="#166F98"></path>
            </g>
        </g>
        <g id="logo" transform="translate(318.034565, 414.954212)">
            <g id="Group-2" transform="translate(0.479161, 0.000000)">
                <g id="Group-31" transform="translate(0.067359, 0.498232)">
                    <path d="M186.923064,276.402379 C198.106977,276.402379 208.23469,272.008706 215.031473,268.576811 L227.18515,283.68774 C227.752252,284.393185 228.369949,285.032958 229.025595,285.609177 C234.452059,290.35875 242.652892,290.657452 248.441964,285.954485 L266.610288,271.199457 C273.101385,265.924508 274.111204,256.363927 268.866044,249.83909 L256.689177,234.698503 C264.03198,225.542548 269.907487,215.651488 274.338888,205.313435 L293.314647,209.039795 C301.509156,210.645583 309.448574,205.277422 311.048686,197.045111 L315.526467,174.00693 C316.601641,168.48624 314.54827,163.07571 310.610183,159.628986 C308.676979,157.93846 306.286299,156.716112 303.589933,156.186499 L284.590984,152.455903 C284.350651,140.997188 282.571344,129.58296 279.286795,118.550055 L296.219724,109.142003 C303.528795,105.080927 306.172457,95.8402334 302.13107,88.4997921 L290.829099,67.9571487 C289.949986,66.3619532 288.826324,64.9849584 287.529792,63.8515858 C282.877031,59.7756813 276.002245,58.8393249 270.28696,62.0148867 L253.347706,71.4292939 C249.633087,67.1712024 245.595916,63.1080087 241.22776,59.2842001 C236.859604,55.4625101 232.299603,52.0009571 227.59203,48.8868305 L234.546927,30.7380395 C236.893335,24.6135905 235.023376,17.8959745 230.368507,13.8221885 C229.074083,12.6888159 227.564623,11.7609333 225.869644,11.1042127 L204.071028,2.67276784 C196.279182,-0.341791457 187.534437,3.56039985 184.534492,11.3880855 L177.579595,29.5389949 C166.256542,27.7827969 154.762727,27.5773069 143.431241,28.9119326 L137.146746,10.5131642 C136.252876,7.90111103 134.722335,5.68944559 132.791239,3.99891972 C128.848936,0.550077457 123.23906,-0.750652978 117.943304,1.07969083 L95.8495418,8.69764953 C87.9501786,11.4198623 83.7506773,20.061034 86.459693,27.9967607 L92.7378631,46.3722262 C83.1540614,52.2022102 74.2090393,59.4091889 66.1916179,67.9740963 L49.5959982,57.9326268 C42.4471484,53.6025079 33.1584924,55.9222145 28.8535819,63.1101271 L16.8010975,83.2184875 C12.9599873,89.6268093 14.3830111,97.7468415 19.8094752,102.498533 C20.4651202,103.070515 21.1819026,103.59801 21.9556059,104.066188 L38.5174945,114.088592 C34.8049836,125.047351 32.6356629,136.39167 31.992667,147.782594 L12.8651191,150.807746 C4.61790568,152.110595 -1.01305215,159.887437 0.285588819,168.172709 L3.91377243,191.359182 C4.49141468,195.030462 6.32975059,198.186958 8.91227524,200.447348 C12.1652022,203.294549 16.6008201,204.728742 21.198768,204.002113 L40.3073422,200.979079 C44.3761362,211.560755 49.8953603,221.680607 56.8397164,231.020868 L44.1336951,245.680566 C38.6524183,252.00415 39.3101715,261.600744 45.6073153,267.108723 L63.2211875,282.526828 C69.5162231,288.036925 79.0641856,287.373849 84.5454624,281.048147 L97.2514837,266.390568 C103.618198,269.917793 112.497866,275.766843 122.524386,275.766843 L186.923064,276.402379 Z" id="Fill-1" fill="#EAEDED"></path>
                    <path d="M186.923064,276.402379 C198.106977,276.402379 208.23469,272.008706 215.031473,268.576811 L227.18515,283.68774 C227.752252,284.393185 228.369949,285.032958 229.025595,285.609177 C234.452059,290.35875 242.652892,290.657452 248.441964,285.954485 L266.610288,271.199457 C273.101385,265.924508 274.111204,256.363927 268.866044,249.83909 L256.689177,234.698503 C264.03198,225.542548 269.907487,215.651488 274.338888,205.313435 L293.314647,209.039795 C301.509156,210.645583 309.448574,205.277422 311.048686,197.045111 L315.526467,174.00693 C316.601641,168.48624 314.54827,163.07571 310.610183,159.628986 C308.676979,157.93846 306.286299,156.716112 303.589933,156.186499 L284.590984,152.455903 C284.350651,140.997188 282.571344,129.58296 279.286795,118.550055 L296.219724,109.142003 C303.528795,105.080927 306.172457,95.8402334 302.13107,88.4997921 L290.829099,67.9571487 C289.949986,66.3619532 288.826324,64.9849584 287.529792,63.8515858 C282.877031,59.7756813 276.002245,58.8393249 270.28696,62.0148867 L253.347706,71.4292939 C249.633087,67.1712024 245.595916,63.1080087 241.22776,59.2842001 C236.859604,55.4625101 232.299603,52.0009571 227.59203,48.8868305 L234.546927,30.7380395 C236.893335,24.6135905 235.023376,17.8959745 230.368507,13.8221885 C229.074083,12.6888159 227.564623,11.7609333 225.869644,11.1042127 L204.071028,2.67276784 C196.279182,-0.341791457 187.534437,3.56039985 184.534492,11.3880855 L177.579595,29.5389949 C166.256542,27.7827969 154.762727,27.5773069 143.431241,28.9119326 L137.146746,10.5131642 C136.252876,7.90111103 134.722335,5.68944559 132.791239,3.99891972 C128.848936,0.550077457 123.23906,-0.750652978 117.943304,1.07969083 L95.8495418,8.69764953 C87.9501786,11.4198623 83.7506773,20.061034 86.459693,27.9967607 L92.7378631,46.3722262 C83.1540614,52.2022102 74.2090393,59.4091889 66.1916179,67.9740963 L49.5959982,57.9326268 C42.4471484,53.6025079 33.1584924,55.9222145 28.8535819,63.1101271 L16.8010975,83.2184875 C12.9599873,89.6268093 14.3830111,97.7468415 19.8094752,102.498533 C20.4651202,103.070515 21.1819026,103.59801 21.9556059,104.066188 L38.5174945,114.088592 C34.8049836,125.047351 32.6356629,136.39167 31.992667,147.782594 L12.8651191,150.807746 C4.61790568,152.110595 -1.01305215,159.887437 0.285588819,168.172709 L3.91377243,191.359182 C4.49141468,195.030462 6.32975059,198.186958 8.91227524,200.447348 C12.1652022,203.294549 16.6008201,204.728742 21.198768,204.002113 L40.3073422,200.979079 C44.3761362,211.560755 49.8953603,221.680607 56.8397164,231.020868 L44.1336951,245.680566 C38.6524183,252.00415 39.3101715,261.600744 45.6073153,267.108723 L63.2211875,282.526828 C69.5162231,288.036925 79.0641856,287.373849 84.5454624,281.048147 L97.2514837,266.390568 C103.618198,269.917793 112.497866,275.766843 122.524386,275.766843 L186.923064,276.402379 Z" id="Fill-3" fill="#EAEDED"></path>
                    <path d="M186.923064,276.402379 C198.106977,276.402379 208.23469,272.008706 215.031473,268.576811 L227.18515,283.68774 C227.752252,284.393185 228.369949,285.032958 229.025595,285.609177 C234.452059,290.35875 242.652892,290.657452 248.441964,285.954485 L266.610288,271.199457 C273.101385,265.924508 274.111204,256.363927 268.866044,249.83909 L256.689177,234.698503 C264.03198,225.542548 269.907487,215.651488 274.338888,205.313435 L293.314647,209.039795 C301.509156,210.645583 309.448574,205.277422 311.048686,197.045111 L315.526467,174.00693 C316.601641,168.48624 314.54827,163.07571 310.610183,159.628986 C308.676979,157.93846 306.286299,156.716112 303.589933,156.186499 L284.590984,152.455903 C284.350651,140.997188 282.571344,129.58296 279.286795,118.550055 L296.219724,109.142003 C303.528795,105.080927 306.172457,95.8402334 302.13107,88.4997921 L290.829099,67.9571487 C289.949986,66.3619532 288.826324,64.9849584 287.529792,63.8515858 C282.877031,59.7756813 276.002245,58.8393249 270.28696,62.0148867 L253.347706,71.4292939 C249.633087,67.1712024 245.595916,63.1080087 241.22776,59.2842001 C236.859604,55.4625101 232.299603,52.0009571 227.59203,48.8868305 L234.546927,30.7380395 C236.893335,24.6135905 235.023376,17.8959745 230.368507,13.8221885 C229.074083,12.6888159 227.564623,11.7609333 225.869644,11.1042127 L204.071028,2.67276784 C196.279182,-0.341791457 187.534437,3.56039985 184.534492,11.3880855 L177.579595,29.5389949 C166.256542,27.7827969 154.762727,27.5773069 143.431241,28.9119326 L137.146746,10.5131642 C136.252876,7.90111103 134.722335,5.68944559 132.791239,3.99891972 C128.848936,0.550077457 123.23906,-0.750652978 117.943304,1.07969083 L95.8495418,8.69764953 C87.9501786,11.4198623 83.7506773,20.061034 86.459693,27.9967607 L92.7378631,46.3722262 C83.1540614,52.2022102 74.2090393,59.4091889 66.1916179,67.9740963 L49.5959982,57.9326268 C42.4471484,53.6025079 33.1584924,55.9222145 28.8535819,63.1101271 L16.8010975,83.2184875 C12.9599873,89.6268093 14.3830111,97.7468415 19.8094752,102.498533 C20.4651202,103.070515 21.1819026,103.59801 21.9556059,104.066188 L38.5174945,114.088592 C34.8049836,125.047351 32.6356629,136.39167 31.992667,147.782594 L12.8651191,150.807746 C4.61790568,152.110595 -1.01305215,159.887437 0.285588819,168.172709 L3.91377243,191.359182 C4.49141468,195.030462 6.32975059,198.186958 8.91227524,200.447348 C12.1652022,203.294549 16.6008201,204.728742 21.198768,204.002113 L40.3073422,200.979079 C44.3761362,211.560755 49.8953603,221.680607 56.8397164,231.020868 L44.1336951,245.680566 C38.6524183,252.00415 39.3101715,261.600744 45.6073153,267.108723 L63.2211875,282.526828 C69.5162231,288.036925 79.0641856,287.373849 84.5454624,281.048147 L97.2514837,266.390568 C103.618198,269.917793 112.497866,275.766843 122.524386,275.766843 L186.923064,276.402379 Z" id="Stroke-5" stroke="#192642" stroke-width="6"></path>
                    <path d="M128.643388,239.788723 C125.700364,226.03996 110.650043,202.249728 102.358558,190.797368 C85.8936457,168.064244 83.195171,136.725962 97.4001106,112.183678 C109.745633,90.8529702 131.489436,80.1738462 155.691381,80.1738462 C179.891218,80.1738462 201.63713,90.8529702 213.980544,112.183678 C228.185483,136.725962 225.480684,168.064244 209.019988,190.797368 C200.724287,202.249728 185.68029,226.03996 182.730941,239.788723" id="Fill-23" fill="#FEFEFE"></path>
                    <path d="M128.643388,233.433363 C125.700364,219.6846 110.650043,202.249728 102.358558,190.797368 C85.8936457,168.064244 83.195171,136.725962 97.4001106,112.183678 C109.745633,90.8529702 131.489436,80.1738462 155.691381,80.1738462 C179.891218,80.1738462 201.63713,90.8529702 213.980544,112.183678 C228.185483,136.725962 225.480684,168.064244 209.019988,190.797368 C200.724287,202.249728 185.68029,219.6846 182.730941,233.433363 L182.730941,241.898703 L179.237682,241.898703 L122.356786,241.898703 C119.17132,241.898703 116.590904,244.493809 116.590904,247.692673 L116.590904,253.410379 C116.590904,256.609244 119.17132,259.20435 122.356786,259.20435 L182.931219,259.20435 C185.884784,259.20435 188.6971,262.403214 188.6971,266.135929 L188.6971,270.10803 C188.6971,273.309013 186.114576,275.904118 182.931219,275.904118 L127.536592,275.904118 C123.408769,276.198583 120.596452,279.645307 120.596452,283.380141 L120.596452,287.354359 C120.596452,290.555343 123.178977,293.14833 126.362334,293.14833 L169.706584,293.059355 C171.026307,293.059355 176.598236,292.510675 176.598236,298.258039 L176.598236,300.355308 L176.518125,304.200301 C176.518125,310.602268 171.355184,315.79036 164.986362,315.79036 L143.234126,315.79036 C136.863195,315.79036 131.700254,310.602268 131.700254,304.200301" id="Stroke-24" stroke="#166F98" stroke-width="6"></path>
                    <path d="M185.064537,197.676656 L156.831537,197.676656 C156.831537,197.676656 157.079037,194.456906 161.041287,194.456906 L178.872537,194.456906 C178.872537,194.456906 181.844787,194.954156 181.844787,191.732156 L181.844787,162.263906 L185.064537,162.263906 L185.064537,197.676656 Z M156.089037,193.466906 L156.089037,159.041906 C156.089037,159.041906 161.783787,153.594656 168.968037,157.061906 C174.662787,160.776656 176.395287,161.519156 177.882537,161.519156 L177.882537,190.989656 L160.548537,190.989656 C160.548537,190.989656 156.089037,191.239406 156.089037,193.466906 Z M152.374287,193.466906 C152.374287,191.239406 147.914787,190.989656 147.914787,190.989656 L130.578537,190.989656 L130.578537,161.519156 C132.065787,161.519156 133.800537,160.776656 139.495287,157.061906 C146.677287,153.594656 152.374287,159.041906 152.374287,159.041906 L152.374287,193.466906 Z M123.398787,197.676656 L123.398787,162.263906 L126.616287,162.263906 L126.616287,191.732156 C126.616287,194.954156 129.590787,194.456906 129.590787,194.456906 L147.422037,194.456906 C151.382037,194.456906 151.631787,197.676656 151.631787,197.676656 L123.398787,197.676656 Z M189.024537,198.173906 L189.024537,160.034156 C189.024537,157.556906 186.545037,157.804406 186.545037,157.804406 L178.373037,157.804406 C161.831037,146.941406 154.151787,155.765906 154.104537,155.819906 C154.059537,155.765906 146.380287,146.941406 129.836037,157.804406 L121.664037,157.804406 C121.664037,157.804406 119.189037,157.372406 119.189037,160.034156 L119.189037,198.173906 C119.189037,198.173906 118.939287,202.133906 122.159037,202.133906 L186.050037,202.133906 C189.269787,202.133906 189.024537,198.173906 189.024537,198.173906 Z" id="Fill-1" fill="#6F1549"></path>
                    <path d="M192.634212,138.291056 C192.634212,138.291056 195.210462,138.968306 195.210462,141.607556 L195.210462,146.823056 C195.210462,146.823056 195.338712,148.047056 194.051712,148.047056 L188.930712,148.047056 C187.643712,148.047056 187.774212,146.789306 187.774212,146.789306 L187.774212,141.576056 C187.774212,138.934556 190.348212,138.291056 190.348212,138.291056 C190.348212,138.291056 191.374212,137.827556 192.634212,138.291056 Z M189.099462,117.323306 C189.099462,117.705806 188.784462,118.016306 188.401962,118.016306 L117.859962,118.016306 C117.477462,118.016306 117.164712,117.705806 117.164712,117.323306 L117.164712,113.145056 C117.164712,112.762556 117.477462,112.452056 117.859962,112.452056 L188.401962,112.452056 C188.784462,112.452056 189.099462,112.762556 189.099462,113.145056 L189.099462,117.323306 Z M174.843462,133.665056 L154.069212,144.078056 L133.123962,133.665056 L133.123962,121.843556 L174.843462,121.843556 L174.843462,133.665056 Z M197.548212,149.037056 L197.548212,140.583806 C197.548212,136.302056 193.372212,135.258056 193.372212,135.258056 L193.354212,110.222306 C193.354212,109.304306 192.602712,108.552806 191.684712,108.552806 L114.579462,108.552806 C113.656962,108.552806 112.905462,109.304306 112.905462,110.222306 L112.905462,120.243806 C112.905462,121.164056 113.656962,121.915556 114.579462,121.915556 C114.579462,121.915556 128.914212,122.021306 128.914212,121.915556 L128.914212,135.831806 L153.965712,149.194556 L179.575212,135.831806 L179.575212,121.427306 L189.666462,121.427306 L189.666462,135.206306 C189.666462,135.206306 185.490462,136.250306 185.490462,140.529806 L185.490462,148.985306 C185.490462,148.985306 185.281212,151.021556 187.369212,151.021556 L195.669462,151.021556 C197.755212,151.021556 197.548212,149.037056 197.548212,149.037056 Z" id="Fill-3" fill="#6F1549"></path>
                    <g id="Group-28" transform="translate(153.897387, 134.277938)" fill="#FEFEFE">
                        <path d="M0.692679031,2.07178602 C0.686354481,2.07178602 0.684246297,0.351601791 0.682138114,0.355823099" id="Fill-26"></path>
                    </g>
                </g>
            </g>
        </g>
    </g>
</svg>